<svg width="52" height="23" viewBox="0 0 52 23" fill="none" xmlns="http://www.w3.org/2000/svg">
<g filter="url(#filter0_i)">
<path d="M12.1801 10.52C13.1721 9.528 13.6681 8.168 13.6681 6.44C13.6681 4.744 12.9641 3.384 11.5561 2.36C10.1801 1.304 8.40406 0.775999 6.22806 0.775999C4.05206 0.775999 2.61206 1.368 1.90806 2.552C1.20406 3.736 0.852062 5.768 0.852062 8.648C0.852062 13.192 0.900062 17.288 0.996062 20.936L1.04406 23C8.62806 23 12.9161 22.456 13.9081 21.368C15.3481 19.96 16.0681 18.232 16.0681 16.184C16.0681 14.936 15.7001 13.752 14.9641 12.632C14.2281 11.48 13.3001 10.776 12.1801 10.52ZM4.21206 6.2C4.21206 5.336 4.38806 4.728 4.74006 4.376C5.12406 3.992 5.82806 3.8 6.85206 3.8C7.94006 3.8 8.85206 4.056 9.58806 4.568C10.3561 5.048 10.7401 5.672 10.7401 6.44C10.7401 7.784 10.0841 8.776 8.77206 9.416C7.46006 9.992 5.94006 10.28 4.21206 10.28V6.2ZM9.10806 12.824C11.7641 12.824 13.0921 13.944 13.0921 16.184C13.0921 18.104 11.6361 19.304 8.72406 19.784C7.22006 20.008 6.13206 20.12 5.46006 20.12C4.78806 20.088 4.42006 20.072 4.35606 20.072C4.19606 18.504 4.11606 16.968 4.11606 15.464L4.16406 13.208C6.11606 12.952 7.76406 12.824 9.10806 12.824ZM32.2148 0.679998C32.0548 0.679998 31.8468 0.759999 31.5908 0.92C31.1108 1.176 30.3748 2.072 29.3828 3.608L27.8948 6.008L26.0708 8.792C25.5908 8.088 24.9668 7.064 24.1988 5.72C22.3108 2.488 21.1428 0.871999 20.6948 0.871999C20.0548 0.871999 19.5108 1.208 19.0628 1.88C18.8708 2.168 18.7748 2.424 18.7748 2.648C18.7748 2.84 18.8228 3.016 18.9188 3.176C21.1268 7.208 22.9188 10.12 24.2948 11.912C24.3908 12.776 24.4388 13.624 24.4388 14.456L24.3908 19.64C24.3908 21.4 24.5668 22.456 24.9188 22.808C25.0468 22.936 25.2548 23 25.5428 23C26.5348 23 27.1268 22.584 27.3188 21.752C27.5108 20.92 27.6068 19.064 27.6068 16.184V12.008C28.0548 11.24 28.5508 10.504 29.0948 9.8L29.7668 8.792L30.9188 7.064L32.1668 5.144C33.0308 3.736 33.4628 2.632 33.4628 1.832C33.4628 1.16 33.0468 0.775999 32.2148 0.679998ZM48.0972 10.52C49.0892 9.528 49.5852 8.168 49.5852 6.44C49.5852 4.744 48.8812 3.384 47.4732 2.36C46.0972 1.304 44.3212 0.775999 42.1452 0.775999C39.9692 0.775999 38.5292 1.368 37.8252 2.552C37.1212 3.736 36.7692 5.768 36.7692 8.648C36.7692 13.192 36.8172 17.288 36.9132 20.936L36.9612 23C44.5452 23 48.8332 22.456 49.8252 21.368C51.2652 19.96 51.9852 18.232 51.9852 16.184C51.9852 14.936 51.6172 13.752 50.8812 12.632C50.1452 11.48 49.2172 10.776 48.0972 10.52ZM40.1292 6.2C40.1292 5.336 40.3052 4.728 40.6572 4.376C41.0412 3.992 41.7452 3.8 42.7692 3.8C43.8572 3.8 44.7692 4.056 45.5052 4.568C46.2732 5.048 46.6572 5.672 46.6572 6.44C46.6572 7.784 46.0012 8.776 44.6892 9.416C43.3772 9.992 41.8572 10.28 40.1292 10.28V6.2ZM45.0252 12.824C47.6812 12.824 49.0092 13.944 49.0092 16.184C49.0092 18.104 47.5532 19.304 44.6412 19.784C43.1372 20.008 42.0492 20.12 41.3772 20.12C40.7052 20.088 40.3372 20.072 40.2732 20.072C40.1132 18.504 40.0332 16.968 40.0332 15.464L40.0812 13.208C42.0332 12.952 43.6812 12.824 45.0252 12.824Z" fill="#FF9002"/>
</g>
<defs>
<filter id="filter0_i" x="0.852051" y="0.679932" width="51.1331" height="26.32" filterUnits="userSpaceOnUse" color-interpolation-filters="sRGB">
<feFlood flood-opacity="0" result="BackgroundImageFix"/>
<feBlend mode="normal" in="SourceGraphic" in2="BackgroundImageFix" result="shape"/>
<feColorMatrix in="SourceAlpha" type="matrix" values="0 0 0 0 0 0 0 0 0 0 0 0 0 0 0 0 0 0 127 0" result="hardAlpha"/>
<feOffset dy="4"/>
<feGaussianBlur stdDeviation="2"/>
<feComposite in2="hardAlpha" operator="arithmetic" k2="-1" k3="1"/>
<feColorMatrix type="matrix" values="0 0 0 0 1 0 0 0 0 0.0708333 0 0 0 0 0.0708333 0 0 0 0.2 0"/>
<feBlend mode="normal" in2="shape" result="effect1_innerShadow"/>
</filter>
</defs>
</svg>
